<svg xmlns="http://www.w3.org/2000/svg" fill-rule="evenodd" stroke-linecap="round" stroke-linejoin="round" stroke-miterlimit="1.5" clip-rule="evenodd" viewBox="0 0 215 155">
  <defs/>
  <g fill="none" stroke="#000" stroke-width="1.6">
    <path d="M30.425 99.63l.052-.054c1.74-1.84 15.87-16.644 22.323-19.146 1.825-1.204 10.541-3.842 15.53.384 1.848 1.567 3.185 4.075 3.47 7.949.21 15.122-2.466 26.613-3 44 .16 9.904 2.279 16.451 6 9 4.486-8.982 7.026-27.848 12-37 4.895-9.007 9.348-14.796 10-18 1.272-4.502-3.596-13.625-13-2-7.375 14.994-.56 28.148 9 26 7.936-.808 14.979-7.925 23-28s12.116-35.762 15-49c5.86-44.79-10.068-36.322-14-19-7.674 39.827-8.28 51.394-9 66-.781 26.879.543 51.268 2 59 1.303 6.911 6.547 26.491 18 3 12.934-26.527 29.238-76.153 27-108-1.11-10.96-7.833-19.538-12 7-4.27 27.197-3.627 44.399 1 63 1.429 5.746 6.838 9.151 13.619-1-2.221-7.272 6.881-18 6.881-18s4.885-7.585 13.5-7 10.098 12.793 8 20c-2.098 7.207-9.18 11.394-15 12-5.82.606-11.672-1.516-13.381-7-1.547-4.967 2.09-12.632 6.881-18 .708 6.614 15.759 7.168 22.348 4 7.963-3.829 27.152-20 27.152-20"/>
    <path d="M.8 79.763c23.421-14.622 38.511-25.785 50-37 6.353-6.428 13.73-15.093 10.586-31.741C58.626-.87 47.388-2.006 39.8 7.763c-9.494 14.197-8.068 77.304-11 122.754"/>
  </g>
</svg>
