<?xml version="1.0" encoding="UTF-8" standalone="no"?><!DOCTYPE svg PUBLIC "-//W3C//DTD SVG 1.1//EN" "http://www.w3.org/Graphics/SVG/1.1/DTD/svg11.dtd"><svg width="100%" height="100%" viewBox="0 0 215 155" version="1.1" xmlns="http://www.w3.org/2000/svg" xmlns:xlink="http://www.w3.org/1999/xlink" xml:space="preserve" xmlns:serif="http://www.serif.com/" style="fill-rule:evenodd;clip-rule:evenodd;stroke-linecap:round;stroke-linejoin:round;stroke-miterlimit:1.5;"><g><path d="M30.425,99.63c0,0 0.021,-0.022 0.052,-0.054c1.74,-1.84 15.87,-16.644 22.323,-19.146c1.825,-1.204 10.541,-3.842 15.53,0.384c1.848,1.567 3.185,4.075 3.47,7.949c0.21,15.122 -2.466,26.613 -3,44c0.16,9.904 2.279,16.451 6,9c4.486,-8.982 7.026,-27.848 12,-37c4.895,-9.007 9.348,-14.796 10,-18c1.272,-4.502 -3.596,-13.625 -13,-2c-7.375,14.994 -0.56,28.148 9,26c7.936,-0.808 14.979,-7.925 23,-28c8.021,-20.075 12.116,-35.762 15,-49c5.86,-44.79 -10.068,-36.322 -14,-19c-7.674,39.827 -8.28,51.394 -9,66c-0.781,26.879 0.543,51.268 2,59c1.303,6.911 6.547,26.491 18,3c12.934,-26.527 29.238,-76.153 27,-108c-1.11,-10.96 -7.833,-19.538 -12,7c-4.27,27.197 -3.627,44.399 1,63c1.429,5.746 6.838,9.151 13.619,-1c-2.221,-7.272 6.881,-18 6.881,-18c0,0 4.885,-7.585 13.5,-7c8.615,0.585 10.098,12.793 8,20c-2.098,7.207 -9.18,11.394 -15,12c-5.82,0.606 -11.672,-1.516 -13.381,-7c-1.547,-4.967 2.09,-12.632 6.881,-18c0.708,6.614 15.759,7.168 22.348,4c7.963,-3.829 27.152,-20 27.152,-20" style="fill:none;stroke:#000;stroke-width:1.6px;"/><path d="M0.8,79.763c23.421,-14.622 38.511,-25.785 50,-37c6.353,-6.428 13.73,-15.093 10.586,-31.741c-2.76,-11.892 -13.998,-13.028 -21.586,-3.259c-9.494,14.197 -8.068,77.304 -11,122.754" style="fill:none;stroke:#000;stroke-width:1.6px;"/></g></svg>